<?xml version="1.0" encoding="UTF-8" standalone="no"?>
<svg
   xmlns:dc="http://purl.org/dc/elements/1.1/"
   xmlns:cc="http://creativecommons.org/ns#"
   xmlns:rdf="http://www.w3.org/1999/02/22-rdf-syntax-ns#"
   xmlns:svg="http://www.w3.org/2000/svg"
   xmlns="http://www.w3.org/2000/svg"
   xmlns:sodipodi="http://sodipodi.sourceforge.net/DTD/sodipodi-0.dtd"
   xmlns:inkscape="http://www.inkscape.org/namespaces/inkscape"
   version="1.0"
   width="16.000000pt"
   height="16.000000pt"
   viewBox="0 0 16.000000 16.000000"
   preserveAspectRatio="xMidYMid meet"
   id="svg8"
   sodipodi:docname="safari-pinned-tab.svg"
   inkscape:version="0.92.3 (2405546, 2018-03-11)">
  <defs
     id="defs12" />
  <sodipodi:namedview
     pagecolor="#ffffff"
     bordercolor="#666666"
     borderopacity="1"
     objecttolerance="10"
     gridtolerance="10"
     guidetolerance="10"
     inkscape:pageopacity="0"
     inkscape:pageshadow="2"
     inkscape:window-width="1366"
     inkscape:window-height="692"
     id="namedview10"
     showgrid="false"
     inkscape:snap-page="true"
     inkscape:zoom="7.8223688"
     inkscape:cx="-2.7908919"
     inkscape:cy="5.450228"
     inkscape:window-x="0"
     inkscape:window-y="0"
     inkscape:window-maximized="1"
     inkscape:current-layer="svg8" />
  <metadata
     id="metadata2">
Created by potrace 1.11, written by Peter Selinger 2001-2013
<rdf:RDF>
  <cc:Work
     rdf:about="">
    <dc:format>image/svg+xml</dc:format>
    <dc:type
       rdf:resource="http://purl.org/dc/dcmitype/StillImage" />
  </cc:Work>
</rdf:RDF>
</metadata>
  <g
     id="g40"
     transform="matrix(0.125,0,0,0.12499999,14.31378,-12.37182)"
     inkscape:export-xdpi="96"
     inkscape:export-ydpi="96">
    <rect
       ry="64"
       y="98.974571"
       x="-114.51025"
       height="128"
       width="128"
       id="rect29"
       style="fill:#ececec;stroke-width:1.30884075" />
    <g
       id="text25"
       style="font-style:normal;font-weight:normal;font-size:71.42946625px;line-height:1.25;font-family:sans-serif;letter-spacing:0px;word-spacing:0px;fill:#000000;fill-opacity:1;stroke:none;stroke-width:1.7857368"
       transform="scale(1.1826528,0.8455567)"
       aria-label="GP">
      <path
         id="path31"
         style="font-style:normal;font-variant:normal;font-weight:bold;font-stretch:normal;font-family:Poppins;-inkscape-font-specification:'Poppins Bold';stroke-width:1.7857368"
         d="m -64.628081,167.02773 q 9.500119,0 15.643053,4.64291 6.142934,4.64292 7.642953,12.57159 h -12.928733 q -1.285731,-2.71432 -3.928621,-4.28577 -2.64289,-1.64288 -6.357223,-1.64288 -5.785786,0 -9.28583,3.92862 -3.500044,3.85719 -3.500044,10.50014 0,7.21437 3.642903,11.07156 3.714332,3.85719 10.500131,3.85719 4.357198,0 7.642953,-2.35717 3.285756,-2.4286 4.642916,-6.85723 h -15.428765 v -8.78582 h 25.643178 v 12.07158 q -1.428589,4.42862 -4.571486,8.21439 -3.142896,3.78576 -8.071529,6.14293 -4.857204,2.35717 -11.142997,2.35717 -7.642953,0 -13.35731,-3.21432 -5.714358,-3.28576 -8.857254,-9.14297 -3.071467,-5.85722 -3.071467,-13.35731 0,-7.5001 3.071467,-13.35732 3.142896,-5.85721 8.785824,-9.07154 5.714358,-3.28575 13.285881,-3.28575 z"
         inkscape:connector-curvature="0" />
      <path
         id="path33"
         style="font-style:normal;font-variant:normal;font-weight:bold;font-stretch:normal;font-family:Poppins;-inkscape-font-specification:'Poppins Bold';stroke-width:1.7857368"
         d="m -21.647631,200.31386 v 17.71451 H -33.86207 v -50.50064 h 19.785962 q 9.000113,0 13.71445779,4.50006 4.71434481,4.42863 4.71434481,12.00015 0,4.71434 -2.142884,8.42868 -2.07145454,3.6429 -6.2143636,5.78578 -4.142909,2.07146 -10.071555,2.07146 z m 6.214363,-9.78584 q 7.3572354,0 7.3572354,-6.50008 0,-6.64294 -7.3572354,-6.64294 h -6.214363 v 13.14302 z"
         inkscape:connector-curvature="0" />
    </g>
  </g>
</svg>
